<?xml version="1.0" encoding="UTF-8"?>
<svg width="179" height="37" viewBox="0 0 179 37" fill="none" xmlns="http://www.w3.org/2000/svg">
<g clip-path="url(#clip0_2129_3784)">
<path d="M173.12 16.6942C173.12 16.6942 173.153 16.6244 173.252 16.5885C173.551 16.3863 173.884 16.2497 173.929 16.049C174.224 14.7201 174.493 13.3828 174.704 12.0378C174.966 10.3649 175.925 9.62374 177.531 10.0291C177.395 10.6448 177.349 11.305 177.099 11.876C176.738 12.7009 176.889 13.3239 177.463 13.858C177.919 13.7598 178.311 13.6754 178.553 13.6234C178.816 14.1477 179.001 14.5183 179.186 14.8889C179.186 15.0287 179.186 15.1685 179.104 15.3779C178.502 15.3906 177.982 15.2849 177.462 15.2872C176.412 15.2917 175.467 16.4818 175.573 17.5759C175.591 17.7677 175.486 17.9719 175.435 18.1696C175.318 18.6223 175.182 19.071 175.087 19.5283C175.023 19.8328 175.018 20.1493 174.986 20.4604C174.899 20.4815 174.811 20.5025 174.724 20.5236C174.528 20.2329 174.332 19.9422 174.124 19.6331C173.937 20.1735 173.758 20.688 173.53 21.3469C173.272 20.9621 173.142 20.769 173.013 20.5758C172.923 20.62 172.833 20.6642 172.743 20.7083C172.917 21.1352 173.091 21.562 173.31 22.1006C173.848 21.5114 174.193 21.1331 174.538 20.7548C174.632 20.7274 174.727 20.7001 174.822 20.6727C174.149 22.6338 174.959 23.5483 176.76 23.762C176.958 23.6147 177.207 23.4297 177.493 23.2169C177.866 24.4408 177.776 24.7014 176.746 24.9451C175.894 25.147 175.011 25.2846 174.136 25.3164C172.692 25.3689 171.564 23.7338 172.003 22.3562C172.346 21.279 172.668 20.1936 172.949 19.0992C173.017 18.8381 172.887 18.5264 172.851 18.1701C172.874 17.9677 172.894 17.8331 172.958 17.6618C173.069 17.3934 173.137 17.1618 173.192 16.868C173.16 16.7686 173.14 16.7314 173.12 16.6942Z" fill="#1FC188"/>
<path d="M14.238 13.315C15.4804 12.5962 16.6722 11.9276 17.8401 11.2197C18.3409 10.9161 18.7394 10.8725 19.2788 11.2067C20.7557 12.1216 22.267 12.985 23.8011 13.8003C24.1025 13.9605 24.6299 13.9403 24.9447 13.7845C25.9073 13.3079 26.8172 12.7248 27.944 12.0687C26.6901 11.3374 25.5864 10.6937 24.3287 9.96029C25.0362 9.55167 25.5982 9.18352 26.2011 8.90356C26.4008 8.81082 26.7463 8.87185 26.9563 8.98756C28.234 9.69169 29.5067 10.4079 30.7438 11.1799C30.9955 11.337 31.2189 11.744 31.2312 12.0449C31.2844 13.3472 31.2108 14.655 31.272 15.9567C31.3059 16.678 31.1085 17.128 30.4195 17.3953C29.9989 17.5585 29.622 17.8344 29.0719 18.147C29.0719 16.7273 29.0719 15.4735 29.0719 14.0002C27.8334 14.7018 26.7529 15.28 25.7184 15.9313C25.5343 16.0472 25.4746 16.4658 25.4709 16.7461C25.4475 18.5162 25.4865 20.2877 25.4277 22.0562C25.4164 22.3965 25.1447 22.8567 24.8538 23.0377C23.3529 23.9721 21.7906 24.8079 20.2898 25.7425C19.9941 25.9267 19.7256 26.3829 19.701 26.7318C19.6252 27.8097 19.6733 28.8964 19.6733 30.1913C20.9227 29.4958 22.034 28.8772 23.2863 28.18C23.2863 29.0146 23.3259 29.6904 23.2634 30.3566C23.2434 30.5706 22.9923 30.8238 22.7815 30.949C21.554 31.6782 20.3228 32.4052 19.0548 33.059C18.7652 33.2083 18.2625 33.1894 17.9662 33.0371C16.8633 32.47 15.829 31.7688 14.7224 31.21C14.0147 30.8527 13.6934 30.4068 13.8154 29.6122C13.8755 29.2206 13.8258 28.8122 13.8258 28.1575C15.0706 28.8667 16.1706 29.4934 17.4744 30.2363C17.4744 28.8071 17.5109 27.5825 17.4434 26.3636C17.43 26.1217 17.0534 25.8421 16.7836 25.6819C15.3163 24.8101 13.8422 23.948 12.3435 23.132C11.8444 22.8602 11.6459 22.5582 11.6608 21.9787C11.7031 20.3337 11.6298 18.685 11.6954 17.0414C11.726 16.2774 11.4692 15.8525 10.8026 15.5248C9.92234 15.092 9.08601 14.5699 8.08184 14.0019C8.08184 15.4213 8.08184 16.6743 8.08184 17.9474C6.31295 17.5548 5.87266 17.0367 5.87231 15.4437C5.87208 14.4187 5.93015 13.3894 5.85346 12.3702C5.79743 11.6256 6.08872 11.2543 6.71927 10.9341C7.71403 10.4289 8.69989 9.88491 9.61374 9.24852C10.3434 8.74039 10.9417 8.74797 11.6099 9.2845C11.9134 9.52816 12.2675 9.70874 12.7074 9.98671C11.5136 10.6997 10.4376 11.3422 9.17412 12.0968C10.4217 12.7989 11.4726 13.5162 12.6273 13.9683C13.0054 14.1164 13.6533 13.5752 14.238 13.315Z" fill="#142B44"/>
<!-- Rest of the SVG paths... -->
<defs>
<clipPath id="clip0_2129_3784">
<rect width="179" height="36.1729" fill="white" transform="translate(0 0.344727)"/>
</clipPath>
</defs>
</svg>