<svg width="179" height="37" viewBox="0 0 179 37" fill="none" xmlns="http://www.w3.org/2000/svg">
<g clip-path="url(#clip0_2129_3784)">
<path d="M173.12 16.6942C173.12 16.6942 173.153 16.6244 173.252 16.5885C173.551 16.3863 173.884 16.2497 173.929 16.049C174.224 14.7201 174.493 13.3828 174.704 12.0378C174.966 10.3649 175.925 9.62374 177.531 10.0291C177.395 10.6448 177.349 11.305 177.099 11.876C176.738 12.7009 176.889 13.3239 177.463 13.858C177.919 13.7598 178.311 13.6754 178.553 13.6234C178.816 14.1477 179.001 14.5183 179.186 14.8889C179.186 15.0287 179.186 15.1685 179.104 15.3779C178.502 15.3906 177.982 15.2849 177.462 15.2872C176.412 15.2917 175.467 16.4818 175.573 17.5759C175.591 17.7677 175.486 17.9719 175.435 18.1696C175.318 18.6223 175.182 19.071 175.087 19.5283C175.023 19.8328 175.018 20.1493 174.986 20.4604C174.899 20.4815 174.811 20.5025 174.724 20.5236C174.528 20.2329 174.332 19.9422 174.124 19.6331C173.937 20.1735 173.758 20.688 173.53 21.3469C173.272 20.9621 173.142 20.769 173.013 20.5758C172.923 20.62 172.833 20.6642 172.743 20.7083C172.917 21.1352 173.091 21.562 173.31 22.1006C173.848 21.5114 174.193 21.1331 174.538 20.7548C174.632 20.7274 174.727 20.7001 174.822 20.6727C174.149 22.6338 174.959 23.5483 176.76 23.762C176.958 23.6147 177.207 23.4297 177.493 23.2169C177.866 24.4408 177.776 24.7014 176.746 24.9451C175.894 25.147 175.011 25.2846 174.136 25.3164C172.692 25.3689 171.564 23.7338 172.003 22.3562C172.346 21.279 172.668 20.1936 172.949 19.0992C173.017 18.8381 172.887 18.5264 172.851 18.1701C172.874 17.9677 172.894 17.8331 172.958 17.6618C173.069 17.3934 173.137 17.1618 173.192 16.868C173.16 16.7686 173.14 16.7314 173.12 16.6942ZM176.347 10.4999C176.164 10.7865 175.981 11.0731 175.797 11.3597C175.946 11.4138 176.094 11.4678 176.243 11.5218C176.319 11.1887 176.396 10.8557 176.347 10.4999Z" fill="#1FC188"/>
<path d="M172.849 18.2379C172.888 18.5263 173.017 18.8381 172.95 19.0992C172.668 20.1936 172.347 21.2789 172.004 22.3562C171.565 23.7338 172.692 25.3689 174.137 25.3164C175.011 25.2845 175.894 25.1469 176.747 24.9451C177.776 24.7013 177.866 24.4407 177.494 23.2169C177.208 23.4297 176.959 23.6146 176.76 23.7619C174.959 23.5482 174.15 22.6337 174.822 20.6726C174.727 20.7 174.633 20.7274 174.538 20.7548C174.193 21.1331 173.848 21.5114 173.311 22.1006C173.091 21.562 172.918 21.1351 172.744 20.7083C172.834 20.6641 172.923 20.62 173.013 20.5758C173.143 20.7689 173.272 20.9621 173.531 21.3469C173.759 20.688 173.937 20.1735 174.124 19.633C174.333 19.9421 174.528 20.2329 174.724 20.5236C174.812 20.5025 174.899 20.4814 174.987 20.4604C175.018 20.1492 175.024 19.8328 175.087 19.5282C175.182 19.071 175.318 18.6223 175.435 18.1696C175.486 17.9719 175.592 17.7676 175.573 17.5759C175.468 16.4818 176.412 15.2917 177.462 15.2871C177.982 15.2849 178.503 15.3905 179.105 15.4478C179.187 15.5311 179.187 15.6139 179.187 15.759C176.484 15.7375 176.486 15.7381 175.822 18.3547C175.57 19.3463 175.274 20.3276 175.054 21.3259C174.77 22.614 175.338 23.226 176.652 23.0918C177.201 23.0358 177.745 22.9372 178.44 22.8364C178.233 23.6283 178.095 24.3465 177.84 25.0207C177.755 25.2452 177.388 25.4574 177.122 25.502C176.148 25.6647 175.161 25.8576 174.181 25.8492C172.297 25.833 171.19 24.4703 171.553 22.6188C171.833 21.1911 172.268 19.7938 172.698 18.3133C172.762 18.2436 172.849 18.2379 172.849 18.2379Z" fill="#1FC188"/>
<path d="M179.187 14.8039C179.001 14.518 178.816 14.1475 178.554 13.6231C178.312 13.6752 177.92 13.7596 177.463 13.8578C176.889 13.3237 176.738 12.7006 177.099 11.8757C177.349 11.3047 177.395 10.6445 177.531 10.0289C175.925 9.62346 174.967 10.3646 174.704 12.0375C174.493 13.3825 174.225 14.7198 173.929 16.0487C173.884 16.2495 173.551 16.386 173.279 16.5594C173.206 16.4832 173.206 16.4 173.268 16.2086C173.597 15.0054 173.864 13.9104 174.132 12.8154C174.177 12.6315 174.221 12.4477 174.338 12.1614C174.452 11.8272 174.495 11.5954 174.537 11.3635C174.946 9.52824 174.946 9.52788 176.842 9.51668C177.209 9.51451 177.576 9.51636 178.142 9.51636C177.848 10.7522 177.583 11.8639 177.288 13.107C177.944 13.107 178.489 13.107 179.11 13.0655C179.187 13.5891 179.187 14.1542 179.187 14.8039Z" fill="white"/>
<path d="M14.238 13.315C15.4804 12.5962 16.6722 11.9276 17.8401 11.2197C18.3409 10.9161 18.7394 10.8725 19.2788 11.2067C20.7557 12.1216 22.267 12.985 23.8011 13.8003C24.1025 13.9605 24.6299 13.9403 24.9447 13.7845C25.9073 13.3079 26.8172 12.7248 27.944 12.0687C26.6901 11.3374 25.5864 10.6937 24.3287 9.96029C25.0362 9.55167 25.5982 9.18352 26.2011 8.90356C26.4008 8.81082 26.7463 8.87185 26.9563 8.98756C28.234 9.69169 29.5067 10.4079 30.7438 11.1799C30.9955 11.337 31.2189 11.744 31.2312 12.0449C31.2844 13.3472 31.2108 14.655 31.272 15.9567C31.3059 16.678 31.1085 17.128 30.4195 17.3953C29.9989 17.5585 29.622 17.8344 29.0719 18.147C29.0719 16.7273 29.0719 15.4735 29.0719 14.0002C27.8334 14.7018 26.7529 15.28 25.7184 15.9313C25.5343 16.0472 25.4746 16.4658 25.4709 16.7461C25.4475 18.5162 25.4865 20.2877 25.4277 22.0562C25.4164 22.3965 25.1447 22.8567 24.8538 23.0377C23.3529 23.9721 21.7906 24.8079 20.2898 25.7425C19.9941 25.9267 19.7256 26.3829 19.701 26.7318C19.6252 27.8097 19.6733 28.8964 19.6733 30.1913C20.9227 29.4958 22.034 28.8772 23.2863 28.18C23.2863 29.0146 23.3259 29.6904 23.2634 30.3566C23.2434 30.5706 22.9923 30.8238 22.7815 30.949C21.554 31.6782 20.3228 32.4052 19.0548 33.059C18.7652 33.2083 18.2625 33.1894 17.9662 33.0371C16.8633 32.47 15.829 31.7688 14.7224 31.21C14.0147 30.8527 13.6934 30.4068 13.8154 29.6122C13.8755 29.2206 13.8258 28.8122 13.8258 28.1575C15.0706 28.8667 16.1706 29.4934 17.4744 30.2363C17.4744 28.8071 17.5109 27.5825 17.4434 26.3636C17.43 26.1217 17.0534 25.8421 16.7836 25.6819C15.3163 24.8101 13.8422 23.948 12.3435 23.132C11.8444 22.8602 11.6459 22.5582 11.6608 21.9787C11.7031 20.3337 11.6298 18.685 11.6954 17.0414C11.726 16.2774 11.4692 15.8525 10.8026 15.5248C9.92234 15.092 9.08601 14.5699 8.08184 14.0019C8.08184 15.4213 8.08184 16.6743 8.08184 17.9474C6.31295 17.5548 5.87266 17.0367 5.87231 15.4437C5.87208 14.4187 5.93015 13.3894 5.85346 12.3702C5.79743 11.6256 6.08872 11.2543 6.71927 10.9341C7.71403 10.4289 8.69989 9.88491 9.61374 9.24852C10.3434 8.74039 10.9417 8.74797 11.6099 9.2845C11.9134 9.52816 12.2675 9.70874 12.7074 9.98671C11.5136 10.6997 10.4376 11.3422 9.17412 12.0968C10.4217 12.7989 11.4726 13.5162 12.6273 13.9683C13.0054 14.1164 13.6533 13.5752 14.238 13.315ZM21.5074 22.5013C21.9103 22.2696 22.3323 22.0647 22.709 21.7964C22.9372 21.6338 23.2494 21.3798 23.2593 21.1552C23.3132 19.9309 23.2849 18.703 23.2849 17.2889C22.0572 17.9945 20.9889 18.6017 19.9306 19.2261C19.813 19.2955 19.6792 19.4615 19.6775 19.5845C19.659 20.8595 19.6661 22.1348 19.6661 23.5538C20.371 23.1523 20.8807 22.862 21.5074 22.5013ZM15.3116 18.13C14.864 17.9036 14.4165 17.6771 13.8559 17.3934C13.8559 18.7175 13.8468 19.8596 13.8647 21.0013C13.8678 21.1984 13.9253 21.4921 14.0597 21.5743C15.1509 22.2414 16.2664 22.8688 17.5046 23.5834C17.5046 22.836 17.4281 22.2985 17.5184 21.7907C17.8397 19.9822 17.2174 18.7628 15.3116 18.13ZM20.5036 14.4323C20.0199 14.1545 19.5482 13.8519 19.0472 13.6101C18.8214 13.5011 18.4726 13.3923 18.2903 13.49C17.2116 14.0679 16.1655 14.7065 14.9407 15.4228C16.1718 16.1313 17.232 16.752 18.3068 17.3464C18.4418 17.421 18.6893 17.4209 18.8245 17.3464C19.8988 16.7544 20.9586 16.1361 22.1886 15.4308C21.5591 15.0569 21.0904 14.7785 20.5036 14.4323Z" fill="#142B44"/>
<path d="M129.234 20.492C129.258 20.4281 129.283 20.3643 129.35 20.1961C129.583 19.289 129.773 18.4862 129.963 17.6834C129.963 17.6834 129.991 17.6205 130.047 17.5394C130.495 16.0456 130.887 14.6328 131.28 13.22C131.28 13.22 131.367 13.1922 131.494 13.2014C132.433 13.2032 133.245 13.1958 134.057 13.1885C134.09 13.4383 134.123 13.6881 134.133 14.0416C134.12 14.1935 134.129 14.2416 134.138 14.2897C134.195 14.2603 134.252 14.2309 134.309 14.2016C135.479 13.5641 136.65 12.9571 138.044 12.9669C139.147 12.9746 140.176 13.1972 140.869 14.0921C141.324 14.6782 141.626 14.5858 142.136 14.2026C143.776 12.9708 145.616 12.6251 147.575 13.2483C148.816 13.6429 149.643 14.465 149.722 16.0041C149.725 16.3536 149.735 16.5548 149.734 16.8297C149.722 17.1014 149.72 17.2996 149.676 17.5517C149.403 18.5535 149.173 19.5013 148.943 20.4491C148.943 20.4491 148.952 20.4492 148.9 20.5C148.504 21.8326 148.133 23.1079 147.827 24.3985C147.635 25.2062 147.342 25.7472 146.359 25.6212C145.817 25.5518 145.253 25.6614 144.698 25.6903C144.654 25.3982 144.514 25.0816 144.581 24.8181C145.112 22.7426 145.688 20.679 146.237 18.608C146.472 17.7199 146.682 16.7726 145.824 16.1162C144.938 15.4383 143.848 15.5124 143.026 16.109C142.32 16.6212 141.637 17.4122 141.361 18.2221C140.619 20.3916 140.076 22.6307 139.512 24.8569C139.35 25.4985 139.062 25.7269 138.422 25.687C137.694 25.6418 136.962 25.6766 136.102 25.6766C136.74 23.2908 137.324 21.0776 137.927 18.8694C138.177 17.9551 138.49 16.9999 137.685 16.2473C136.955 15.5639 136.029 15.7546 135.006 15.9899C134.41 16.4283 133.957 16.872 133.504 17.3156C133.504 17.3156 133.465 17.3623 133.398 17.4247C132.893 19.0446 132.453 20.6022 132.014 22.1598C131.991 22.2231 131.968 22.2864 131.898 22.4529C131.783 22.8607 131.715 23.1653 131.648 23.4698C131.648 23.4698 131.638 23.4702 131.608 23.4903C131.535 23.5585 131.54 23.6014 131.593 23.639C131.561 23.7229 131.529 23.8068 131.454 24.0176C131.237 24.9515 131.049 25.7442 129.959 25.689C129.761 25.6832 129.563 25.6774 129.228 25.6439C128.772 25.576 128.453 25.5358 128.056 25.4857C128.14 24.9573 128.213 24.4933 128.287 24.0292C128.309 23.9656 128.331 23.902 128.398 23.7329C128.707 22.5822 128.97 21.5371 129.234 20.492Z" fill="#1FC188"/>
<path d="M109.729 24.6171C108.419 25.4575 107.024 26.0144 105.431 25.8315C103.194 25.5748 101.934 23.9866 102.425 21.7906C103.067 18.9202 103.879 16.0879 104.622 13.2246C105.679 13.2246 106.665 13.2246 107.776 13.2246C107.305 15.0098 106.85 16.7315 106.395 18.4531C106.189 19.2325 105.934 20.0026 105.787 20.7929C105.519 22.2304 106.31 23.1397 107.776 23.1562C109.39 23.1745 110.693 22.1554 111.194 20.3972C111.815 18.2191 112.384 16.0262 112.978 13.8405C113.035 13.6343 113.113 13.4341 113.18 13.2329C114.197 13.2329 115.18 13.2329 116.272 13.2329C115.855 14.7903 115.466 16.2825 115.056 17.7691C114.355 20.3107 113.777 22.8965 112.903 25.3776C111.393 29.6622 106.512 31.9625 102.189 30.5525C101.503 30.3285 100.886 29.8903 100.139 29.4998C100.635 28.5868 101.056 27.811 101.517 26.9632C103.255 28.2236 105.117 28.5902 107.09 27.8997C108.484 27.4119 109.389 26.36 109.963 24.8775C109.909 24.714 109.819 24.6656 109.729 24.6171Z" fill="#122A43"/>
<path d="M77.8526 13.1235C78.7292 13.0964 79.5575 12.9532 80.3291 13.1027C82.7417 13.5702 83.9359 15.3978 83.7088 18.0872C83.4169 21.5448 80.7912 24.7179 77.4231 25.6248C75.4317 26.161 73.5999 26.0044 72.1623 24.0258C71.8276 25.2405 71.5285 26.3241 71.231 27.4083C71.1653 27.6477 71.1067 27.8891 71.0429 28.129C70.2992 30.9229 70.2991 30.9229 67.2056 30.6706C68.7711 24.8571 70.329 19.0721 71.8992 13.2411C72.8992 13.2411 73.8759 13.2411 74.8969 13.2411C74.796 13.7743 74.7061 14.2501 74.6362 14.6193C75.6805 14.1281 76.7294 13.6347 77.8526 13.1235ZM79.9876 16.7106C79.3424 15.7744 78.3926 15.5833 77.3591 15.6984C75.0945 15.9507 73.3281 18.0238 73.236 20.492C73.1721 22.2047 74.1083 23.1664 75.8248 23.1513C78.8248 23.1248 81.162 19.6444 79.9876 16.7106Z" fill="#122A43"/>
<path d="M83.6595 21.8663C84.4424 18.9481 85.2046 16.1031 85.9743 13.23C86.9695 13.23 87.9212 13.23 88.9388 13.23C88.8611 13.7519 88.7908 14.2239 88.7279 14.6467C89.6987 14.1617 90.605 13.5198 91.6119 13.239C95.6607 12.1101 98.4925 14.6701 97.6548 18.7757C96.9618 22.1725 94.9813 24.6091 91.5422 25.6106C89.5323 26.1958 87.6764 25.9839 86.2224 24.0424C85.5934 26.353 85.004 28.5179 84.4123 30.6909C83.364 30.6909 82.3804 30.6909 81.2812 30.6909C82.0799 27.7261 82.8594 24.8328 83.6595 21.8663ZM89.3652 16.5036C88.1372 17.447 87.5095 18.7252 87.3094 20.2318C87.0723 22.0163 88.1291 23.1957 89.9138 23.1571C92.4425 23.1024 94.7669 20.3904 94.4385 17.8779C94.2557 16.4796 93.4334 15.6264 92.0208 15.6987C91.1622 15.7427 90.3231 16.1686 89.3652 16.5036Z" fill="#122A43"/>
<path d="M46.4532 17.2848C44.7606 15.9676 44.5169 14.2745 45.6703 12.1983C47.2746 9.3104 50.8731 7.80402 54.5291 8.48985C56.1427 8.79255 57.2197 9.36829 58.0067 10.382C57.3731 11.0762 56.7313 11.7795 56.0301 12.5477C54.9444 11.5621 53.6925 11.0024 52.287 11.0951C51.386 11.1546 50.4104 11.3418 49.6467 11.7816C49.1387 12.0741 48.6922 12.9136 48.6929 13.5077C48.6935 13.9673 49.355 14.552 49.8589 14.8532C50.4841 15.2269 51.2497 15.3657 51.9548 15.6055C52.0136 15.6255 52.074 15.6408 52.1328 15.6611C53.9345 16.2819 55.7836 16.9821 56.0786 19.1534C56.3855 21.4115 55.2046 23.1348 53.3797 24.3153C50.6218 26.0995 47.6326 26.3827 44.5687 25.1735C43.8464 24.8884 43.2356 24.3208 42.4966 23.8323C43.1801 23.0067 43.7466 22.3223 44.3616 21.5794C46.1747 23.1497 48.2198 23.4458 50.4177 22.9218C50.8302 22.8235 51.2491 22.6395 51.5957 22.3962C52.9987 21.4116 52.9002 19.9124 51.3587 19.1989C50.4905 18.797 49.5448 18.5657 48.6467 18.2241C47.9243 17.9493 47.221 17.6243 46.4532 17.2848Z" fill="#132A43"/>
<path d="M119.303 10.382C121.983 7.95999 126.721 7.61974 129.488 9.60867C130.318 10.2051 130.33 10.3418 129.606 11.106C129.201 11.5331 128.841 12.1997 128.363 12.3018C127.932 12.3939 127.379 11.8408 126.861 11.6126C125.31 10.9281 123.729 10.8547 122.169 11.5475C121.392 11.8924 120.843 12.5078 120.827 13.4072C120.811 14.2728 121.484 14.6336 122.161 14.8948C123.087 15.2515 124.047 15.5167 124.974 15.8699C125.521 16.0784 126.062 16.3349 126.554 16.65C128.216 17.7139 128.766 19.2122 128.108 21.064C127.001 24.1757 124.492 25.4263 121.451 25.7997C119.344 26.0583 117.298 25.8115 115.514 24.4673C114.902 24.0056 114.713 23.5848 115.338 22.9818C115.777 22.5584 116.151 22.0674 116.611 21.5412C118.107 22.9428 119.861 23.2984 121.753 23.088C122.856 22.9653 123.893 22.6463 124.505 21.5947C124.988 20.7658 124.846 20.0036 124.025 19.5131C123.419 19.1511 122.743 18.8987 122.082 18.6394C121.073 18.2436 120.017 17.9527 119.038 17.4938C117.388 16.7197 116.682 15.1575 117.367 13.4708C117.81 12.3807 118.613 11.4369 119.303 10.382Z" fill="#1FC188"/>
<path d="M154.129 13.8578C154.188 13.8376 154.247 13.8173 154.413 13.7711C156.958 12.7694 159.306 12.3652 161.257 14.9892C161.422 14.3456 161.543 13.8731 161.663 13.4006C161.807 13.3337 161.951 13.2667 162.238 13.2036C163.136 13.205 163.89 13.2027 164.645 13.2003C164.658 13.2862 164.671 13.372 164.66 13.5846C164.578 13.9799 164.52 14.2485 164.462 14.517C164.462 14.517 164.455 14.5178 164.41 14.5694C163.719 17.1366 163.074 19.6521 162.429 22.1676C162.407 22.2301 162.385 22.2925 162.313 22.4568C162.128 23.1107 161.994 23.6627 161.86 24.2147C161.798 24.42 161.737 24.6253 161.626 24.9414C161.317 25.2516 161.068 25.6024 160.796 25.6215C160.028 25.6753 159.251 25.5931 158.477 25.5645C158.477 25.5645 158.484 25.5363 158.491 25.4598C158.592 24.9185 158.686 24.4536 158.799 23.8948C158.067 24.4179 157.434 24.8706 156.801 25.3234C156.801 25.3234 156.714 25.3405 156.604 25.3569C154.763 26.0517 153.068 25.9635 151.406 25.1459C151.406 25.1459 151.362 25.1027 151.305 25.0453C151.118 24.91 150.989 24.8321 150.86 24.7542C150.86 24.7542 150.845 24.7704 150.842 24.7051C150.719 24.5577 150.599 24.4756 150.478 24.3935C150.166 23.6979 149.853 23.0023 149.585 22.1726C149.531 20.1276 150.225 18.4312 151.053 16.7707C151.053 16.7707 151.038 16.7509 151.099 16.7327C151.805 15.9847 152.449 15.2548 153.094 14.525C153.094 14.525 153.083 14.516 153.151 14.5169C153.522 14.2979 153.826 14.0778 154.129 13.8578ZM153.788 17.9484C153.517 18.7021 153.144 19.4365 152.998 20.2136C152.684 21.8776 153.712 23.0673 155.404 23.1324C157.801 23.2245 160.006 21.0458 160.137 18.4571C160.236 16.5007 158.851 15.3276 156.895 15.7117C155.571 15.9717 154.595 16.7321 153.788 17.9484Z" fill="#1FC188"/>
<path d="M59.6989 25.6961C57.1416 24.9048 56.2035 23.2908 56.842 20.7673C57.4278 18.4522 58.0952 16.1578 58.6817 13.8428C58.8178 13.3054 59.058 13.1523 59.5779 13.1792C60.345 13.2189 61.1157 13.1894 62.0101 13.1894C61.428 15.3625 60.8736 17.4178 60.3291 19.4757C60.1944 19.9845 60.042 20.4965 59.985 21.0166C59.8419 22.3227 60.5169 23.0741 61.8388 23.1471C63.5219 23.2401 64.8987 22.1806 65.4092 20.349C65.9838 18.2875 66.5237 16.2163 67.0799 14.1496C67.16 13.8516 67.2465 13.5553 67.3352 13.2397C68.3779 13.2397 69.3885 13.2397 70.4749 13.2397C69.7759 15.8203 69.1794 18.3567 68.3963 20.834C67.2374 24.5002 63.8179 26.3794 59.6989 25.6961Z" fill="#132A43"/>
<path d="M101.087 9.46276C101.567 7.62325 101.567 7.62326 103.381 7.62354C103.777 7.6236 104.173 7.62355 104.72 7.62355C104.368 8.95798 104.053 10.1731 103.727 11.3852C102.528 15.8442 101.305 20.2973 100.142 24.7657C99.9566 25.4772 99.6714 25.7362 98.9508 25.6688C98.2793 25.6061 97.5974 25.6554 96.7285 25.6554C98.1961 20.2052 99.6324 14.8711 101.087 9.46276Z" fill="#132B44"/>
<path d="M165.592 16.0269C165.613 15.9431 165.634 15.8592 165.709 15.689C165.774 15.4906 165.785 15.3787 165.796 15.2668C165.814 15.1859 165.832 15.105 165.912 14.9212C166.064 14.4492 166.152 14.0802 166.24 13.7112C166.272 13.595 166.303 13.4788 166.449 13.3088C167.41 13.2399 168.257 13.2248 169.104 13.2097C169.104 13.2097 169.119 13.2078 169.125 13.2631C169.176 13.4062 169.22 13.494 169.264 13.5819C169.225 13.7931 169.185 14.0043 169.102 14.3297C169.076 14.57 169.094 14.696 169.112 14.822C169.289 14.6768 169.466 14.5316 169.643 14.3864C169.704 14.3251 169.766 14.2638 169.907 14.1803C170.034 14.1355 170.066 14.0997 170.084 14.0505C170.144 14.0112 170.204 13.9718 170.384 13.929C170.924 13.7121 171.344 13.4986 171.764 13.2852C171.793 13.2747 171.823 13.2642 171.977 13.2522C172.537 13.1697 172.972 13.0886 173.408 13.0075C173.491 13.0067 173.574 13.0059 173.721 13.0892C173.472 14.0657 173.159 14.9581 172.847 15.8506C172.516 15.8935 172.185 15.9364 171.707 15.9773C170.984 16.2144 170.407 16.4535 169.83 16.6926C169.83 16.6926 169.82 16.7069 169.76 16.7102C169.625 16.7731 169.549 16.8327 169.473 16.8923C169.419 16.9372 169.366 16.9822 169.238 17.0691C169.122 17.1351 169.094 17.1702 169.081 17.2163C168.877 17.4513 168.673 17.6862 168.415 17.9945C168.339 18.0941 168.329 18.1243 168.331 18.1586C168.331 18.1586 168.316 18.1937 168.266 18.2368C168.189 18.3695 168.163 18.4591 168.137 18.5487C168.137 18.5487 168.13 18.5756 168.082 18.6174C168.009 18.755 167.985 18.8508 167.961 18.9466C167.944 19.0361 167.927 19.1257 167.861 19.3037C167.787 19.434 167.781 19.4784 167.794 19.5254C167.764 19.6699 167.733 19.8144 167.657 20.054C167.593 20.1899 167.591 20.2316 167.608 20.2741C167.601 20.3067 167.595 20.3394 167.525 20.4576C167.422 20.7309 167.383 20.9187 167.344 21.1065C167.328 21.1727 167.311 21.2389 167.259 21.4065C167.219 21.5832 167.215 21.6585 167.211 21.7338C167.205 21.7713 167.198 21.8088 167.137 21.936C167.07 22.1241 167.057 22.2223 167.044 22.3206C166.962 22.6504 166.88 22.9802 166.746 23.4042C166.67 23.5433 166.666 23.5896 166.683 23.6376C166.665 23.7214 166.647 23.8051 166.57 23.9996C166.406 24.5324 166.3 24.9545 166.195 25.3765C166.111 25.4519 166.026 25.5273 165.8 25.582C164.924 25.578 164.19 25.5947 163.456 25.6113C163.35 25.5643 163.244 25.5172 163.148 25.3608C163.156 25.2152 163.153 25.179 163.15 25.1428C163.15 25.1428 163.155 25.0546 163.216 24.9664C163.364 24.4742 163.451 24.0702 163.538 23.6661C163.581 23.514 163.623 23.3619 163.733 23.1085C163.842 22.7379 163.885 22.4687 163.927 22.1995C163.934 22.165 163.94 22.1306 163.998 22.0199C164.086 21.8913 164.092 21.836 164.068 21.7776C164.122 21.5734 164.176 21.3691 164.292 21.0629C164.359 20.8419 164.362 20.7229 164.366 20.604C164.386 20.5352 164.407 20.4665 164.483 20.3184C164.535 20.1781 164.531 20.1171 164.527 20.0561C164.554 19.9297 164.58 19.8034 164.675 19.5727C164.786 19.203 164.829 18.9378 164.872 18.6725C164.884 18.6344 164.895 18.5962 164.963 18.4521C165.079 18.0627 165.139 17.7794 165.2 17.496C165.232 17.3584 165.264 17.2208 165.346 16.9791C165.404 16.785 165.413 16.695 165.421 16.605C165.43 16.5702 165.439 16.5355 165.502 16.4136C165.569 16.2266 165.58 16.1268 165.592 16.0269Z" fill="#1FC188"/>
<path d="M34.1918 21.977C34.1977 23.1873 34.2291 24.3057 34.193 25.4218C34.1833 25.7218 34.054 26.1576 33.8346 26.289C32.1592 27.2928 30.4488 28.2381 28.746 29.1958C28.6481 29.2509 28.5219 29.2558 28.4097 29.2838C27.9242 27.5092 28.0687 26.8325 29.604 26.206C31.5683 25.4045 32.2356 24.1476 31.986 22.072C31.7882 20.4273 32.362 19.9235 34.1919 19.584C34.1919 20.3648 34.1919 21.1245 34.1918 21.977Z" fill="white"/>
<path d="M18.6181 4.67776C17.7416 5.11215 16.9003 5.51279 16.1296 6.0207C15.2891 6.57464 14.5229 6.72628 13.7095 6.00845C13.4829 5.80846 13.1959 5.67689 12.7222 5.37914C13.3349 5.01534 13.8116 4.72638 14.2939 4.44718C15.5251 3.7345 16.7536 3.01691 17.9963 2.32476C18.217 2.20181 18.576 2.05693 18.7438 2.15053C20.5688 3.16889 22.3685 4.23279 24.2043 5.30131C22.8484 6.6613 22.3364 6.73272 20.884 5.89493C20.1602 5.4774 19.4182 5.09149 18.6181 4.67776Z" fill="white"/>
<path d="M6.11726 24.8965C6.92515 25.388 7.64139 25.9043 8.432 26.2512C9.37926 26.6667 9.74588 27.3008 9.58724 28.2967C9.54002 28.5931 9.5479 28.8983 9.5193 29.3943C8.81557 29.0081 8.23298 28.6952 7.65697 28.3707C6.54817 27.746 5.43453 27.129 4.34311 26.4751C4.10286 26.3311 3.78249 26.0499 3.77778 25.8261C3.73434 23.7598 3.75215 21.6922 3.75215 19.5996C5.53732 20.0186 5.8887 20.4619 5.91411 22.0796C5.9286 23.0024 6.00824 23.9241 6.11726 24.8965Z" fill="white"/>
<path d="M132.085 22.1501C132.453 20.6023 132.893 19.0447 133.391 17.4546C133.279 18.1566 133.101 18.8896 132.938 19.6261C132.801 20.248 132.706 20.88 132.545 21.495C132.484 21.7281 132.29 21.9262 132.085 22.1501Z" fill="#C2F7E9"/>
<path d="M131.211 13.2251C130.888 14.633 130.495 16.0458 130.051 17.5055C130.019 16.0162 130.377 14.5691 131.211 13.2251Z" fill="#C2F7E9"/>
<path d="M129.164 20.5029C128.971 21.537 128.707 22.5821 128.401 23.6823C128.605 22.6628 128.85 21.5884 129.164 20.5029Z" fill="#C2F7E9"/>
<path d="M128.227 24.0596C128.214 24.4932 128.14 24.9573 128.056 25.4856C128.453 25.5357 128.772 25.5759 129.154 25.6516C128.766 25.689 128.315 25.6909 127.863 25.6929C127.964 25.1586 128.066 24.6243 128.227 24.0596Z" fill="#C2F7E9"/>
<path d="M130.006 25.7414C131.049 25.7441 131.237 24.9514 131.45 24.085C131.507 25.6037 131.499 25.965 130.006 25.7414Z" fill="#C2F7E9"/>
<path d="M163.488 25.6578C164.19 25.5948 164.924 25.5781 165.744 25.5974C165.06 25.657 164.291 25.6805 163.488 25.6578Z" fill="white"/>
<path d="M133.569 17.3101C133.957 16.872 134.41 16.4283 134.928 15.9976C134.541 16.4419 134.088 16.8733 133.569 17.3101Z" fill="#C2F7E9"/>
<path d="M129.912 17.7261C129.774 18.4864 129.584 19.2892 129.35 20.1447C129.49 19.3877 129.675 18.5781 129.912 17.7261Z" fill="#C2F7E9"/>
<path d="M161.928 24.2016C161.994 23.6631 162.128 23.111 162.31 22.5068C162.237 23.0325 162.116 23.6103 161.928 24.2016Z" fill="#D0F8ED"/>
<path d="M169.9 16.6999C170.408 16.4533 170.985 16.2141 171.636 15.9834C171.131 16.2303 170.55 16.4688 169.9 16.6999Z" fill="white"/>
<path d="M169.046 13.1616C168.257 13.2249 167.41 13.24 166.482 13.2589C167.264 13.2129 168.126 13.1632 169.046 13.1616Z" fill="white"/>
<path d="M134.001 13.1362C133.245 13.1953 132.433 13.2026 131.537 13.186C132.284 13.1361 133.115 13.1103 134.001 13.1362Z" fill="#C2F7E9"/>
<path d="M171.695 13.2681C171.343 13.4988 170.923 13.7123 170.434 13.9086C170.785 13.6779 171.206 13.4643 171.695 13.2681Z" fill="white"/>
<path d="M173.357 12.9653C172.972 13.0885 172.537 13.1696 172.023 13.2451C172.399 13.134 172.853 13.0286 173.357 12.9653Z" fill="white"/>
<path d="M149.745 16.7555C149.735 16.5543 149.726 16.3531 149.731 16.0776C149.924 16.2063 150.102 16.4092 150.282 16.6834C150.284 16.7547 150.286 16.7528 150.219 16.7502C150.016 16.7502 149.88 16.7528 149.745 16.7555Z" fill="#D0F8ED"/>
<path d="M154.057 13.8354C153.825 14.078 153.522 14.298 153.154 14.5228C153.389 14.2893 153.687 14.0512 154.057 13.8354Z" fill="#D0F8ED"/>
<path d="M166.251 25.3449C166.3 24.9546 166.406 24.5325 166.546 24.0596C166.489 24.4435 166.398 24.8783 166.251 25.3449Z" fill="white"/>
<path d="M166.187 13.7476C166.151 14.0803 166.063 14.4493 165.937 14.8642C165.977 14.5346 166.056 14.1592 166.187 13.7476Z" fill="white"/>
<path d="M173.204 16.9302C173.137 17.1618 173.07 17.3934 172.95 17.6134C172.9 17.5367 172.904 17.4717 172.907 17.4066C172.925 17.3127 172.944 17.2187 173.02 17.0467C173.117 16.9471 173.159 16.9343 173.204 16.9302Z" fill="#40BB91"/>
<path d="M163.487 23.71C163.45 24.07 163.363 24.4741 163.227 24.9235C163.263 24.5639 163.35 24.1589 163.487 23.71Z" fill="white"/>
<path d="M169.511 14.3806C169.466 14.5317 169.289 14.6769 169.112 14.8221C169.094 14.6961 169.076 14.57 169.086 14.409C169.202 14.3742 169.29 14.3745 169.511 14.3806Z" fill="white"/>
<path d="M164.526 14.5059C164.519 14.2488 164.577 13.9802 164.667 13.6499C164.662 13.8902 164.626 14.1923 164.526 14.5059Z" fill="#D0F8ED"/>
<path d="M131.718 23.4523C131.715 23.165 131.782 22.8605 131.892 22.5029C131.886 22.7783 131.837 23.1067 131.718 23.4523Z" fill="#C2F7E9"/>
<path d="M164.822 18.6997C164.829 18.9376 164.786 19.2028 164.69 19.5098C164.682 19.2767 164.727 19.0019 164.822 18.6997Z" fill="white"/>
<path d="M165.146 17.5337C165.14 17.7794 165.079 18.0627 164.985 18.3965C164.998 18.1551 165.045 17.8632 165.146 17.5337Z" fill="white"/>
<path d="M163.881 22.2329C163.884 22.4686 163.842 22.7378 163.747 23.0506C163.741 22.8184 163.788 22.5424 163.881 22.2329Z" fill="white"/>
<path d="M174.491 11.4053C174.495 11.5958 174.452 11.8276 174.365 12.0967C174.362 11.9049 174.403 11.6758 174.491 11.4053Z" fill="white"/>
<path d="M172.848 17.4321C172.904 17.472 172.9 17.537 172.906 17.6505C172.895 17.8334 172.875 17.968 172.852 18.1704C172.849 18.2382 172.762 18.244 172.719 18.2478C172.714 17.9869 172.751 17.7221 172.848 17.4321Z" fill="white"/>
<path d="M150.483 24.4556C150.599 24.4763 150.719 24.5584 150.851 24.6984C150.737 24.6766 150.613 24.5968 150.483 24.4556Z" fill="#D0F8ED"/>
<path d="M150.863 24.8223C150.988 24.8325 151.117 24.9104 151.273 25.0401C151.156 25.0245 151.012 24.9572 150.863 24.8223Z" fill="#D0F8ED"/>
<path d="M167.393 21.0714C167.383 20.9187 167.422 20.7309 167.503 20.5024C167.511 20.6533 167.477 20.8448 167.393 21.0714Z" fill="white"/>
<path d="M164.326 20.6279C164.362 20.7228 164.358 20.8418 164.306 21.0009C164.267 20.9114 164.277 20.7817 164.326 20.6279Z" fill="white"/>
<path d="M165.753 15.3037C165.785 15.3788 165.773 15.4907 165.735 15.6299C165.708 15.5516 165.709 15.446 165.753 15.3037Z" fill="white"/>
<path d="M169.288 13.5262C169.221 13.4941 169.177 13.4062 169.132 13.2676C169.191 13.3013 169.251 13.3859 169.288 13.5262Z" fill="white"/>
<path d="M167.252 21.7204C167.215 21.6585 167.218 21.5832 167.246 21.4561C167.278 21.5052 167.286 21.6061 167.252 21.7204Z" fill="white"/>
<path d="M173.192 16.8681C173.159 16.9344 173.117 16.9472 173.046 16.9801C173.023 16.9081 173.03 16.8247 173.078 16.7178C173.14 16.7315 173.16 16.7687 173.192 16.8681Z" fill="white"/>
<path d="M169.527 16.9001C169.549 16.8328 169.625 16.7732 169.752 16.7114C169.729 16.7755 169.655 16.8417 169.527 16.9001Z" fill="white"/>
<path d="M165.375 16.6323C165.412 16.6946 165.404 16.7846 165.371 16.9126C165.341 16.8538 165.335 16.7569 165.375 16.6323Z" fill="white"/>
<path d="M165.548 16.0596C165.58 16.1265 165.569 16.2263 165.523 16.3638C165.494 16.2985 165.498 16.1955 165.548 16.0596Z" fill="white"/>
<path d="M167.091 22.2909C167.057 22.222 167.07 22.1237 167.118 21.9893C167.148 22.0559 167.143 22.1587 167.091 22.2909Z" fill="white"/>
<path d="M168.013 18.9241C167.986 18.8507 168.01 18.7549 168.073 18.6279C168.097 18.6984 168.08 18.8001 168.013 18.9241Z" fill="white"/>
<path d="M168.189 18.5346C168.163 18.4592 168.189 18.3696 168.253 18.2515C168.274 18.3221 168.258 18.4213 168.189 18.5346Z" fill="white"/>
<path d="M167.832 19.5082C167.78 19.4789 167.786 19.4342 167.835 19.3667C167.913 19.3863 167.918 19.436 167.832 19.5082Z" fill="white"/>
<path d="M169.123 17.2256C169.094 17.1707 169.121 17.1354 169.196 17.1011C169.251 17.1582 169.23 17.206 169.123 17.2256Z" fill="white"/>
<path d="M163.12 25.1592C163.153 25.1792 163.157 25.2156 163.136 25.3016C163.095 25.3127 163.073 25.2754 163.062 25.235C163.058 25.2188 163.08 25.1956 163.12 25.1592Z" fill="white"/>
<path d="M168.37 18.1612C168.329 18.1247 168.339 18.0943 168.379 18.052C168.398 18.0362 168.447 18.096 168.447 18.096C168.447 18.096 168.409 18.1632 168.37 18.1612Z" fill="white"/>
<path d="M170.042 14.0425C170.067 14.1001 170.035 14.1361 169.95 14.1662C169.907 14.1053 169.935 14.0588 170.042 14.0425Z" fill="white"/>
<path d="M166.718 23.6155C166.667 23.5901 166.67 23.5434 166.718 23.4712C166.788 23.4902 166.792 23.5398 166.718 23.6155Z" fill="white"/>
<path d="M131.613 23.6168C131.54 23.6017 131.536 23.5586 131.613 23.4932C131.658 23.5173 131.653 23.5566 131.613 23.6168Z" fill="#C2F7E9"/>
<path d="M164.498 20.0894C164.531 20.1174 164.535 20.1787 164.498 20.2678C164.432 20.236 164.436 20.1784 164.498 20.0894Z" fill="white"/>
<path d="M167.643 20.255C167.591 20.232 167.593 20.1901 167.632 20.123C167.709 20.1332 167.719 20.1792 167.643 20.255Z" fill="white"/>
<path d="M164.035 21.8052C164.092 21.8359 164.086 21.8915 164.018 21.972C163.954 21.941 163.959 21.8854 164.035 21.8052Z" fill="white"/>
<path d="M176.411 10.5112C176.397 10.8556 176.32 11.1887 176.243 11.5217C176.095 11.4677 175.946 11.4137 175.798 11.3597C175.981 11.0731 176.164 10.7865 176.411 10.5112Z" fill="#40BB91"/>
<path d="M21.4492 22.5366C20.8809 22.8622 20.3713 23.1525 19.6664 23.5539C19.6664 22.135 19.6593 20.8596 19.6777 19.5846C19.6795 19.4616 19.8132 19.2957 19.9309 19.2263C20.9891 18.6019 22.0575 17.9946 23.2852 17.2891C23.2852 18.7031 23.3135 19.931 23.2596 21.1553C23.2497 21.3799 22.9375 21.634 22.7093 21.7965C22.3325 22.0649 21.9106 22.2698 21.4492 22.5366Z" fill="#EFF2F4"/>
<path d="M15.3702 18.1662C17.2173 18.7629 17.8396 19.9823 17.5183 21.7908C17.4281 22.2987 17.5045 22.8361 17.5045 23.5835C16.2663 22.8689 15.1508 22.2416 14.0596 21.5744C13.9252 21.4922 13.8677 21.1985 13.8646 21.0014C13.8467 19.8597 13.8559 18.7176 13.8559 17.3936C14.4164 17.6772 14.864 17.9037 15.3702 18.1662Z" fill="#EDF0F3"/>
<path d="M20.5628 14.4659C21.0906 14.7782 21.5594 15.0566 22.1889 15.4305C20.9589 16.1358 19.8991 16.7541 18.8248 17.3461C18.6895 17.4206 18.4421 17.4208 18.3071 17.3461C17.2322 16.7517 16.172 16.131 14.9409 15.4226C16.1657 14.7062 17.2119 14.0676 18.2905 13.4897C18.4728 13.392 18.8217 13.5008 19.0474 13.6098C19.5484 13.8517 20.0202 14.1542 20.5628 14.4659Z" fill="#EFF4F5"/>
<path d="M149.734 16.8298C149.88 16.7535 150.016 16.7508 150.219 16.75C150.285 17.0166 150.297 17.2834 150.26 17.5432C150.256 17.5724 149.974 17.5622 149.77 17.534C149.72 17.2996 149.721 17.1015 149.734 16.8298Z" fill="#FEFFFF"/>
<path d="M134.276 14.169C134.252 14.2306 134.195 14.26 134.139 14.2893C134.129 14.2413 134.12 14.1932 134.144 14.1089C134.178 14.0727 134.244 14.1368 134.276 14.169Z" fill="#FEFFFF"/>
<path d="M109.771 24.6799C109.818 24.6651 109.908 24.7135 109.958 24.8097C109.884 24.8194 109.849 24.7813 109.771 24.6799Z" fill="#FEFFFF"/>
</g>
<defs>
<clipPath id="clip0_2129_3784">
<rect width="179" height="36.1729" fill="white" transform="translate(0 0.344727)"/>
</clipPath>
</defs>
</svg>
